# xmcd CD database file
#
# Track frame offsets:
#	150
#	28312
#	50250
#	78777
#	107113
#	126771
#	155545
#	180248
#	200575
#	227505
#	258065
#	290890
#	306289
#
# Disc length: 4544 seconds
#
# Revision: 2
# Processed by: cddbd v1.4b41PL1 Copyright (c) Steve Scherf et al.
# Submitted via: Feurio! 1.50.2ﬂ - http://www.feurio.com
#
DISCID=aa11be0d
DTITLE=BAP - Live in St. Wendel CD 2
DYEAR=1900
DGENRE=
TTITLE0=Stadt im Niemansland  - 
TTITLE1=Zehnter Juni  - 
TTITLE2=Sandino  - 
TTITLE3=Biko  - 
TTITLE4=Ahl M‰nner, aalglatt - 
TTITLE5=Nemm mich mit - 
TTITLE6=Fortsetzung folgt - 
TTITLE7=Anna - 
TTITLE8=Frau ich freu mich - 
TTITLE9=R‰‰ts und links vom Bahndamm - 
TTITLE10=Vatter - 
TTITLE11=Helfe kann dir keiner - 
TTITLE12=Time is cash, time is money - 
EXTD=
EXTT0=
EXTT1=
EXTT2=
EXTT3=
EXTT4=
EXTT5=
EXTT6=
EXTT7=
EXTT8=
EXTT9=
EXTT10=
EXTT11=
EXTT12=
PLAYORDER=
